<svg xmlns="http://www.w3.org/2000/svg" viewBox="0 0 24 24" width="100%" height="100%">
  <rect width="24" height="24" rx="6" fill="#2563eb"/>
  <path d="M9.937 15.5A2 2 0 0 0 8.5 14.063l-6.135-1.582a.5.5 0 0 1 0-.962L8.5 9.936A2 2 0 0 0 9.937 8.5l1.582-6.135a.5.5 0 0 1 .963 0L14.063 8.5A2 2 0 0 0 15.5 9.937l6.135 1.581a.5.5 0 0 1 0 .964L15.5 14.063a2 2 0 0 0-1.437 1.437l-1.582 6.135a.5.5 0 0 1-.963 0z" stroke="#ffffff" stroke-width="1.5" stroke-linejoin="round" fill="none"/>
  <path d="M20 3v4" stroke="#ffffff" stroke-width="1.5" stroke-linecap="round"/>
  <path d="M22 5h-4" stroke="#ffffff" stroke-width="1.5" stroke-linecap="round"/>
  <path d="M4 17v2" stroke="#ffffff" stroke-width="1.5" stroke-linecap="round"/>
  <path d="M5 18H3" stroke="#ffffff" stroke-width="1.5" stroke-linecap="round"/>
</svg>
